HIERARCHY
ROOT reference
{
  OFFSET 0 0 0
  CHANNELS 6 Xposition Yposition Zposition Zrotation Xrotation Yrotation
  JOINT Hips
  {
    OFFSET 19.8941 91.4584 12.6699
    CHANNELS 3 Zrotation Xrotation Yrotation
    JOINT RightUpLeg
    {
      OFFSET -9.21136 -1.54315 -0.00338228
      CHANNELS 3 Zrotation Xrotation Yrotation
      JOINT RightLeg
      {
        OFFSET 0.100199 -41.8913 0.117885
        CHANNELS 3 Zrotation Xrotation Yrotation
        JOINT RightFoot
        {
          OFFSET -0.0312538 -39.9042 0.200326
          CHANNELS 3 Zrotation Xrotation Yrotation
          End Site
          {
            OFFSET 0 -7.69 17.5
          }
        }
      }
    }
    JOINT LeftUpLeg
    {
      OFFSET 9.2904 -1.6473 0.00344049
      CHANNELS 3 Zrotation Xrotation Yrotation
      JOINT LeftLeg
      {
        OFFSET 0.15381 -41.8817 -0.0541105
        CHANNELS 3 Zrotation Xrotation Yrotation
        JOINT LeftFoot
        {
          OFFSET 0.872932 -43.9846 -0.139608
          CHANNELS 3 Zrotation Xrotation Yrotation
          End Site
          {
            OFFSET 0 -7.69 17.5
          }
        }
      }
    }
    JOINT Spine
    {
      OFFSET 0.0768477 14.3139 0.027738
      CHANNELS 3 Zrotation Xrotation Yrotation
      JOINT Spine1
      {
        OFFSET -0.0133682 9.71866 0.00713354
        CHANNELS 3 Zrotation Xrotation Yrotation
        JOINT Spine2
        {
          OFFSET -0.0175262 10.1212 -0.00524987
          CHANNELS 3 Zrotation Xrotation Yrotation
          JOINT Spine3
          {
            OFFSET -0.00348171 9.71796 0.0104149
            CHANNELS 3 Zrotation Xrotation Yrotation
            JOINT Neck
            {
              OFFSET -0.0845439 10.3822 0.044921
              CHANNELS 3 Zrotation Xrotation Yrotation
              JOINT Head
              {
                OFFSET -0.0310878 9.44025 0.0694291
                CHANNELS 3 Zrotation Xrotation Yrotation
                End Site
                {
                  OFFSET 0 15.95 0
                }
              }
            }
            JOINT RightShoulder
            {
              OFFSET -3.20882 6.90619 -0.0326675
              CHANNELS 3 Zrotation Xrotation Yrotation
              JOINT RightArm
              {
                OFFSET -12.8514 -0.0142271 -0.0483735
                CHANNELS 3 Zrotation Xrotation Yrotation
                JOINT RightForeArm
                {
                  OFFSET -26.4475 -0.0994884 -0.035967
                  CHANNELS 3 Zrotation Xrotation Yrotation
                  JOINT RightHand
                  {
                    OFFSET -25.9226 -0.102631 -0.136889
                    CHANNELS 3 Zrotation Xrotation Yrotation
                    JOINT RightHandThumb1
                    {
                      OFFSET -2.48905 0.190105 3.12053
                      CHANNELS 3 Zrotation Xrotation Yrotation
                      JOINT RightHandThumb2
                      {
                        OFFSET -3.68274 0 0
                        CHANNELS 3 Zrotation Xrotation Yrotation
                        JOINT RightHandThumb3
                        {
                          OFFSET -2.55832 0 0
                          CHANNELS 3 Zrotation Xrotation Yrotation
                          End Site
                          {
                            OFFSET -2.194 0 0
                          }
                        }
                      }
                    }
                    JOINT RightInHandIndex
                    {
                      OFFSET -3.22368 0.508421 1.97842
                      CHANNELS 3 Zrotation Xrotation Yrotation
                      JOINT RightHandIndex1
                      {
                        OFFSET -5.21684 -0.091368 0.999158
                        CHANNELS 3 Zrotation Xrotation Yrotation
                        JOINT RightHandIndex2
                        {
                          OFFSET -3.61937 0 0
                          CHANNELS 3 Zrotation Xrotation Yrotation
                          JOINT RightHandIndex3
                          {
                            OFFSET -2.0521 0 0
                            CHANNELS 3 Zrotation Xrotation Yrotation
                            End Site
                            {
                              OFFSET -1.805 0 0
                            }
                          }
                        }
                      }
                    }
                    JOINT RightInHandMiddle
                    {
                      OFFSET -3.38211 0.517263 0.756737
                      CHANNELS 3 Zrotation Xrotation Yrotation
                      JOINT RightHandMiddle1
                      {
                        OFFSET -5.17411 -0.084 0.313895
                        CHANNELS 3 Zrotation Xrotation Yrotation
                        JOINT RightHandMiddle2
                        {
                          OFFSET -3.94947 0 0
                          CHANNELS 3 Zrotation Xrotation Yrotation
                          JOINT RightHandMiddle3
                          {
                            OFFSET -2.47579 0 0
                            CHANNELS 3 Zrotation Xrotation Yrotation
                            End Site
                            {
                              OFFSET -1.975 0 0
                            }
                          }
                        }
                      }
                    }
                    JOINT RightInHandRing
                    {
                      OFFSET -3.36516 0.537895 -0.128947
                      CHANNELS 3 Zrotation Xrotation Yrotation
                      JOINT RightHandRing1
                      {
                        OFFSET -4.63474 -0.022105 -0.478947
                        CHANNELS 3 Zrotation Xrotation Yrotation
                        JOINT RightHandRing2
                        {
                          OFFSET -3.44238 0 0
                          CHANNELS 3 Zrotation Xrotation Yrotation
                          JOINT RightHandRing3
                          {
                            OFFSET -2.3881 0 0
                            CHANNELS 3 Zrotation Xrotation Yrotation
                            End Site
                            {
                              OFFSET -1.857 0 0
                            }
                          }
                        }
                      }
                    }
                    JOINT RightInHandPinky
                    {
                      OFFSET -3.16105 0.469368 -1.20179
                      CHANNELS 3 Zrotation Xrotation Yrotation
                      JOINT RightHandPinky1
                      {
                        OFFSET -4.14105 -0.022105 -1.09053
                        CHANNELS 3 Zrotation Xrotation Yrotation
                        JOINT RightHandPinky2
                        {
                          OFFSET -2.75653 0 0
                          CHANNELS 3 Zrotation Xrotation Yrotation
                          JOINT RightHandPinky3
                          {
                            OFFSET -1.74189 0 0
                            CHANNELS 3 Zrotation Xrotation Yrotation
                            End Site
                            {
                              OFFSET -1.645 0 0
                            }
                          }
                        }
                      }
                    }
                  }
                }
              }
            }
            JOINT LeftShoulder
            {
              OFFSET 3.19355 6.9059 0.0487761
              CHANNELS 3 Zrotation Xrotation Yrotation
              JOINT LeftArm
              {
                OFFSET 12.7349 -0.00433124 -0.0458964
                CHANNELS 3 Zrotation Xrotation Yrotation
                JOINT LeftForeArm
                {
                  OFFSET 26.4064 -0.194468 0.00909971
                  CHANNELS 3 Zrotation Xrotation Yrotation
                  JOINT LeftHand
                  {
                    OFFSET 25.9027 0.0515579 -0.250056
                    CHANNELS 3 Zrotation Xrotation Yrotation
                    JOINT LeftHandThumb1
                    {
                      OFFSET 2.48905 0.190105 3.12053
                      CHANNELS 3 Zrotation Xrotation Yrotation
                      JOINT LeftHandThumb2
                      {
                        OFFSET 3.68274 0 0
                        CHANNELS 3 Zrotation Xrotation Yrotation
                        JOINT LeftHandThumb3
                        {
                          OFFSET 2.55832 0 0
                          CHANNELS 3 Zrotation Xrotation Yrotation
                          End Site
                          {
                            OFFSET 2.194 0 0
                          }
                        }
                      }
                    }
                    JOINT LeftInHandIndex
                    {
                      OFFSET 3.22368 0.508421 1.97842
                      CHANNELS 3 Zrotation Xrotation Yrotation
                      JOINT LeftHandIndex1
                      {
                        OFFSET 5.21684 -0.091368 0.999158
                        CHANNELS 3 Zrotation Xrotation Yrotation
                        JOINT LeftHandIndex2
                        {
                          OFFSET 3.61937 0 0
                          CHANNELS 3 Zrotation Xrotation Yrotation
                          JOINT LeftHandIndex3
                          {
                            OFFSET 2.0521 0 0
                            CHANNELS 3 Zrotation Xrotation Yrotation
                            End Site
                            {
                              OFFSET 1.805 0 0
                            }
                          }
                        }
                      }
                    }
                    JOINT LeftInHandMiddle
                    {
                      OFFSET 3.38211 0.517263 0.756737
                      CHANNELS 3 Zrotation Xrotation Yrotation
                      JOINT LeftHandMiddle1
                      {
                        OFFSET 5.17411 -0.084 0.313895
                        CHANNELS 3 Zrotation Xrotation Yrotation
                        JOINT LeftHandMiddle2
                        {
                          OFFSET 3.94947 0 0
                          CHANNELS 3 Zrotation Xrotation Yrotation
                          JOINT LeftHandMiddle3
                          {
                            OFFSET 2.47579 0 0
                            CHANNELS 3 Zrotation Xrotation Yrotation
                            End Site
                            {
                              OFFSET 1.975 0 0
                            }
                          }
                        }
                      }
                    }
                    JOINT LeftInHandRing
                    {
                      OFFSET 3.36516 0.537895 -0.128947
                      CHANNELS 3 Zrotation Xrotation Yrotation
                      JOINT LeftHandRing1
                      {
                        OFFSET 4.63474 -0.022105 -0.478947
                        CHANNELS 3 Zrotation Xrotation Yrotation
                        JOINT LeftHandRing2
                        {
                          OFFSET 3.44238 0 0
                          CHANNELS 3 Zrotation Xrotation Yrotation
                          JOINT LeftHandRing3
                          {
                            OFFSET 2.3881 0 0
                            CHANNELS 3 Zrotation Xrotation Yrotation
                            End Site
                            {
                              OFFSET 1.857 0 0
                            }
                          }
                        }
                      }
                    }
                    JOINT LeftInHandPinky
                    {
                      OFFSET 3.16105 0.469368 -1.20179
                      CHANNELS 3 Zrotation Xrotation Yrotation
                      JOINT LeftHandPinky1
                      {
                        OFFSET 4.14105 -0.022105 -1.09053
                        CHANNELS 3 Zrotation Xrotation Yrotation
                        JOINT LeftHandPinky2
                        {
                          OFFSET 2.75653 0 0
                          CHANNELS 3 Zrotation Xrotation Yrotation
                          JOINT LeftHandPinky3
                          {
                            OFFSET 1.74189 0 0
                            CHANNELS 3 Zrotation Xrotation Yrotation
                            End Site
                            {
                              OFFSET 1.645 0 0
                            }
                          }
                        }
                      }
                    }
                  }
                }
              }
            }
          }
        }
      }
    }
  }
}
MOTION
Frames:	4
Frame Time:	0.00416667
0 0 0 0 0 -0 29.2749 -19.1087 -116.997 -9.36946 -52.4543 -10.5635 -4.39014 10.2066 25.4549 9.27177 4.03254 42.9748 17.5515 -38.3797 20.372 -0.424204 3.6659 -9.13007 -13.543 3.27692 -13.7087 3.7437 18.9563 -10.1345 0.624457 4.67097 -2.51987 1.07728 7.35827 -4.27158 -1.57712 -0.64586 0.857128 -1.61091 -0.632896 0.890717 -29.4467 -11.4107 16.0036 -5.65242 -8.45252 9.619 61.6219 -1.70575 37.8042 58.2945 -75.8186 129.645 -0.218124 -23.3433 17.3693 28.184 10.7294 19.1592 0 0 -10 -2.94921e-15 1.59028e-15 -10 -1.59028e-15 -3.57812e-15 6.36111e-15 19.9818 0.871897 2.3964 24 -7.95139e-15 -9.54166e-15 20 6.36111e-15 -3.18055e-15 -1.59028e-15 -3.57812e-15 6.36111e-15 20 -1.19271e-15 3.18055e-15 24 -4.77083e-15 -1.74931e-14 20 0 -6.36111e-15 -1.59028e-15 -3.57812e-15 6.36111e-15 19.9748 -1.02565 -2.81938 24 -7.95139e-15 -2.22639e-14 20 -3.18055e-15 -7.95139e-15 -1.59028e-15 -3.57812e-15 6.36111e-15 19.7815 -3.00948 -8.30515 24 -6.36111e-15 -3.57812e-14 20 -1.59028e-15 -1.03368e-14 -27.2912 -19.9452 -21.5608 18.8139 45.6035 -134.724 25.7424 16.6236 -17.5375 -10.7092 7.02832 -19.203 -28.184 10.7294 -19.1592 -4.93175e-16 -6.36111e-15 10 -4.77679e-15 -9.54166e-15 10 9.54166e-15 3.18055e-15 3.18055e-15 -19.9818 0.871897 -2.3964 -24 -6.36111e-15 -9.93923e-15 -20 -3.18055e-15 1.59028e-15 9.54166e-15 3.18055e-15 3.18055e-15 -20 6.36111e-15 -1.59028e-14 -24 1.27222e-14 -1.03368e-14 -20 3.18055e-15 -3.18055e-15 9.54166e-15 3.18055e-15 3.18055e-15 -19.9748 -1.02565 2.81938 -24 3.18055e-15 -7.95139e-15 -20 -6.36111e-15 -7.95139e-16 9.54166e-15 3.18055e-15 3.18055e-15 -19.7815 -3.00948 8.30515 -24 -3.18055e-15 -5.56597e-15 -20 0 5.96354e-15 
0 0 0 0 0 -0 29.2645 -19.1055 -116.974 -9.42033 -52.4433 -10.6236 -4.38238 10.2108 25.4605 9.27207 4.03165 42.9766 17.5299 -38.386 20.3358 -0.426936 3.67428 -9.12729 -13.5447 3.2868 -13.7083 3.75458 18.9534 -10.1181 0.627588 4.67064 -2.51428 1.08228 7.35837 -4.26175 -1.57682 -0.644819 0.857165 -1.61067 -0.631857 0.890722 -29.4271 -11.3748 15.9885 -5.65518 -8.44778 9.61815 61.5742 -1.57972 37.9661 58.2318 -75.9832 129.581 -0.204777 -23.3069 17.3736 28.184 10.7294 19.1592 4.93175e-16 -6.36111e-15 -10 8.28682e-15 -7.95139e-15 -10 -2.38542e-15 -1.98785e-15 6.36111e-15 19.9818 0.871897 2.3964 24 9.54166e-15 2.22639e-14 20 -3.18055e-15 3.18055e-15 -2.38542e-15 -1.98785e-15 6.36111e-15 20 2.78299e-15 -3.18055e-15 24 3.18055e-15 1.74931e-14 20 0 -3.18055e-15 -2.38542e-15 -1.98785e-15 6.36111e-15 19.9748 -1.02565 -2.81938 24 7.95139e-15 3.18055e-14 20 3.18055e-15 1.59028e-15 -2.38542e-15 -1.98785e-15 6.36111e-15 19.7815 -3.00948 -8.30515 24 3.97569e-15 4.05521e-14 20 -7.95139e-16 1.59028e-15 -27.2926 -19.9096 -21.56 18.7484 45.5685 -134.586 25.7002 16.5781 -17.5052 -10.7216 7.0613 -19.2198 -28.184 10.7294 -19.1592 5.60818e-16 -3.18055e-15 10 -0 0 10 -3.18055e-15 3.18055e-15 -0 -19.9818 0.871897 -2.3964 -24 0 8.34896e-15 -20 -6.36111e-15 9.54166e-15 -3.18055e-15 3.18055e-15 -0 -20 0 9.54166e-15 -24 3.18055e-15 1.19271e-14 -20 -6.36111e-15 7.95139e-15 -3.18055e-15 3.18055e-15 -0 -19.9748 -1.02565 2.81938 -24 -6.36111e-15 1.43125e-14 -20 0 7.95139e-15 -3.18055e-15 3.18055e-15 -0 -19.7815 -3.00948 8.30515 -24 -9.54166e-15 1.66979e-14 -20 6.36111e-15 8.74653e-15 
0 0 0 0 0 -0 29.2548 -19.1008 -116.948 -9.4741 -52.4316 -10.6916 -4.37263 10.2157 25.4708 9.27081 4.03083 42.9782 17.5077 -38.3923 20.2941 -0.430254 3.68145 -9.11933 -13.5455 3.29722 -13.7109 3.76707 18.9511 -10.1006 0.631121 4.67035 -2.50823 1.08792 7.35852 -4.25109 -1.57659 -0.642341 0.857205 -1.61047 -0.629363 0.890731 -29.4126 -11.3373 15.9702 -5.66054 -8.44567 9.61794 61.5264 -1.44795 38.13 58.2143 -76.1492 129.553 -0.194837 -23.2632 17.3718 28.184 10.7294 19.1592 2.6688e-15 -3.18055e-15 -10 2.38839e-15 -4.77083e-15 -10 1.59028e-15 0 -3.18055e-15 19.9818 0.871897 2.3964 24 1.59028e-15 9.54166e-15 20 -3.18055e-15 -6.36111e-15 1.59028e-15 0 -3.18055e-15 20 -1.98785e-15 2.22639e-14 24 1.59028e-15 7.95139e-15 20 -1.59028e-15 -0 1.59028e-15 0 -3.18055e-15 19.9748 -1.02565 -2.81938 24 0 7.95139e-15 20 -1.59028e-15 -3.97569e-15 1.59028e-15 0 -3.18055e-15 19.7815 -3.00948 -8.30515 24 -7.95139e-16 -2.38542e-15 20 0 -4.77083e-15 -27.2932 -19.8729 -21.5606 18.6753 45.5308 -134.438 25.6539 16.5359 -17.4715 -10.7347 7.09303 -19.2339 -28.184 10.7294 -19.1592 -1.68245e-15 9.54166e-15 10 -4.35126e-15 6.36111e-15 10 9.54166e-15 -3.18055e-15 -0 -19.9818 0.871897 -2.3964 -24 -3.18055e-15 -1.98785e-15 -20 1.27222e-14 -7.95139e-15 9.54166e-15 -3.18055e-15 -0 -20 3.18055e-15 1.59028e-15 -24 6.36111e-15 2.38542e-15 -20 0 -3.97569e-15 9.54166e-15 -3.18055e-15 -0 -19.9748 -1.02565 2.81938 -24 -9.54166e-15 7.15625e-15 -20 -6.36111e-15 -5.56597e-15 9.54166e-15 -3.18055e-15 -0 -19.7815 -3.00948 8.30515 -24 -3.18055e-15 4.77083e-15 -20 3.18055e-15 -2.78299e-15 
0 0 0 0 0 -0 29.2407 -19.1007 -116.924 -9.5321 -52.4202 -10.7593 -4.36483 10.2225 25.4819 9.26877 4.03012 42.9793 17.4825 -38.398 20.2531 -0.437192 3.687 -9.10656 -13.5471 3.31145 -13.7189 3.77873 18.9503 -10.0824 0.634442 4.67008 -2.50207 1.09319 7.3587 -4.2403 -1.57639 -0.640241 0.856695 -1.61029 -0.627272 0.890155 -29.4093 -11.3 15.9519 -5.66869 -8.44744 9.61926 61.472 -1.30687 38.2918 58.2585 -76.326 129.571 -0.180718 -23.2217 17.3652 28.184 10.7294 19.1592 -3.72279e-15 6.36111e-15 -10 2.80409e-16 1.59028e-15 -10 2.38542e-15 0 3.18055e-15 19.9818 0.871897 2.3964 24 -4.77083e-15 -1.11319e-14 20 0 1.59028e-15 2.38542e-15 0 3.18055e-15 20 -5.56597e-15 -2.8625e-14 24 1.59028e-15 -1.27222e-14 20 0 -3.18055e-15 2.38542e-15 0 3.18055e-15 19.9748 -1.02565 -2.81938 24 -6.36111e-15 -1.59028e-14 20 1.59028e-15 2.38542e-15 2.38542e-15 0 3.18055e-15 19.7815 -3.00948 -8.30515 24 1.59028e-15 5.56597e-15 20 -7.95139e-16 5.56597e-15 -27.298 -19.8351 -21.5608 18.6014 45.49 -134.284 25.6005 16.4895 -17.4338 -10.7512 7.12607 -19.2451 -28.184 10.7294 -19.1592 -3.22962e-15 0 10 5.60818e-16 -3.18055e-15 10 -0 -1.27222e-14 -0 -19.9818 0.871897 -2.3964 -24 -3.18055e-15 8.74653e-15 -20 0 5.56597e-15 -0 -1.27222e-14 -0 -20 0 6.36111e-15 -24 -3.18055e-15 1.27222e-14 -20 -9.54166e-15 4.77083e-15 -0 -1.27222e-14 -0 -19.9748 -1.02565 2.81938 -24 -9.54166e-15 5.56597e-15 -20 -9.54166e-15 7.95139e-15 -0 -1.27222e-14 -0 -19.7815 -3.00948 8.30515 -24 9.54166e-15 1.11319e-14 -20 -3.18055e-15 7.95139e-16 
